<?xml version="1.0" standalone="yes"?>
<svg xmlns="http://www.w3.org/2000/svg" width="458" height="829">
<path style="stroke:#010101; fill:none;" d="M448 2C448.186 4.6358 450.611 16.7359 454 15M454 14L456 16M454 15L457 22M233 151L233 154L229 152C234.158 145.706 223.987 131.467 220.753 125C211.116 105.725 201.9 86.2566 192.247 67C189.94 62.3984 180.477 51.7587 181.208 46.9645C183.221 33.7507 207.055 43.7609 215 40.517C223.05 37.23 227.376 27.8981 236 25.6883C242.106 24.1238 247.958 28.7403 254 28.8627C258.036 28.9445 262.102 25.416 266 27.0826C277.192 31.8679 281.176 46.5298 294 50.2106C306.781 53.8791 317.769 39.8542 328.787 52.0439C330.926 54.4109 332.385 57.2744 334 60C309.793 77.6025 293.818 103.548 275.576 127C268.515 136.078 258.363 147.668 262 160C294.076 140.365 348.614 107.213 334 61C343.59 56.0039 354.283 71.0338 365 73.8441C377.741 77.1851 391.722 74.5466 404 79.8796C424.991 88.997 424.677 116.235 411.671 132C398.139 148.403 376.09 153.374 356 156.271C328.786 160.194 300.696 162.454 274 169.127C263.193 171.828 246.802 174.028 238.213 181.557C230.701 188.142 231.697 200.054 230.83 209C229.776 219.886 226.093 230.673 222.667 241C216.714 258.94 207.196 288.442 218 306C228.561 293.9 225.973 281.508 230.749 267C236.572 249.313 250.648 235.425 267 227.248C274.018 223.739 283.133 219.74 291 222L267 247.004L229 290M171 163C149.77 151.181 129.867 138.882 107 130.192C102.473 128.472 85.6981 125.438 85.0332 119.892C84.6495 116.692 88.1999 113.154 90.1736 111.039C95.2326 105.618 101.743 101.232 109 99.5031C112.886 98.5776 120.391 99.4011 123.508 96.9722C128.73 92.9037 119.412 76.7448 122.603 70.321C124.3 66.9047 135.296 67.0229 139 64.7276C152.391 56.4291 162.542 33.4384 180 49M179 51C179 92.6824 195.908 126.472 229 152M126 97C138.173 101.244 150.118 101.068 162 107.666C185.818 120.892 202.773 146.384 215.13 170C217.084 173.733 215.915 177.69 218 181L219 178M128 99C129.64 109.94 137.255 120.523 144.004 129C162.202 151.857 188.001 166.681 214 179M226 300C226 329.038 219.405 359.915 230 388L228 390L218 388L227.565 427L232 463C244.318 454.621 256.604 444.606 261.641 430C264.854 420.685 262.825 403.102 271.529 396.647C275.398 393.779 281.656 399.028 285 401C295.338 387.178 293.618 367.148 311 358.785C313.684 357.494 324.525 352.271 326.799 355.643C329.368 359.454 324.447 369.734 326 375L345.995 355.323L359.001 356.86L407 321C413.236 342.099 398.48 369.726 386.37 386C353.496 430.181 301.213 452.942 261.015 489.285C251.79 497.626 244.645 508.271 237 518C227.377 530.245 216.383 542.497 210.231 557C206.832 565.015 206.058 572.406 205.999 581C205.98 583.85 206.323 588.132 202.852 589.107C197.931 590.489 191.608 586.099 188 583.319C176.575 574.517 169.084 561.861 159.866 551C119.592 503.55 95.5716 449.108 92 387M214 383C206.64 384.438 197.488 378.482 191 375.247C172.493 366.017 153.055 355.327 137.004 342.195C131.811 337.947 119.665 325.309 123.618 317.362C125.588 313.402 145.25 324.27 149 325.684C177.619 336.479 200.677 355.014 214 383M214 384L218 388M94 389C111.182 401.358 124.021 427.116 132.691 446C135.897 452.983 137.882 461.848 142.638 467.941C147.739 474.476 156.131 469.741 161.895 475.148C169.26 482.057 167.143 493.397 173.394 500.956C179.119 507.88 186.216 502.353 191.7 507.242C202.829 517.163 208.505 533.069 217 545M229 389L231 391M232 463C220.775 473.254 215.431 491.75 229 503C234.306 491.975 231.097 477.743 231 466M216 547C239.628 581.679 207.171 618.739 191.309 648C174.153 679.646 167.395 717.445 174 753"/>
</svg>
