<svg version="1.1" id="Layer_1" xmlns="http://www.w3.org/2000/svg" xmlns:xlink="http://www.w3.org/1999/xlink" x="0px" y="0px"
	 width="100%" viewBox="0 0 448 816" enable-background="new 0 0 448 816" xml:space="preserve">
<path fill="#000000" opacity="1.000000" stroke="none" 
	d="
M191.692001,588.492920 
	C183.587021,583.196167 177.552200,576.314941 171.991837,568.989929 
	C158.601883,551.350464 143.753250,534.851685 131.822876,516.062439 
	C111.533638,484.108826 98.154381,449.649292 92.866188,412.144745 
	C91.777122,404.420898 91.340477,396.600128 90.768341,388.811920 
	C90.632782,386.966522 90.004707,384.521973 92.616348,383.687347 
	C94.826088,382.981140 95.893463,384.945465 97.065865,386.251617 
	C116.522011,407.927338 131.615173,432.300964 142.217270,459.443268 
	C142.944199,461.304230 143.762817,463.129120 144.507675,464.983307 
	C146.000092,468.698425 148.497314,470.149994 152.690018,469.859161 
	C162.182053,469.200592 167.479721,473.097046 170.374847,482.406586 
	C171.608444,486.373352 172.303772,490.507568 173.537811,494.474213 
	C176.219513,503.094147 180.324692,505.067841 188.657730,501.836090 
	C191.199615,500.850311 192.330505,502.432739 193.583099,504.031830 
	C201.708405,514.404419 209.379410,525.087402 215.869217,536.580505 
	C216.506287,537.708679 217.224014,538.791382 218.154877,540.301819 
	C224.983749,531.667114 232.012466,523.678650 238.037384,514.993774 
	C256.467957,488.426697 281.471497,469.239105 307.813446,451.405914 
	C330.571533,435.998932 353.759338,421.129333 372.711578,400.808044 
	C388.894226,383.456421 401.511078,364.170868 406.118958,340.446228 
	C406.969025,336.069489 407.294800,331.645325 406.486481,327.153809 
	C404.018951,327.045807 403.142792,328.947021 401.885559,330.098602 
	C389.544281,341.403076 376.122253,351.220093 361.559570,359.453308 
	C355.871338,362.669220 353.734650,362.176178 349.554077,357.151062 
	C343.288086,361.410370 338.146484,366.793701 333.913574,373.043793 
	C332.138275,375.665070 330.245361,378.339233 326.756744,376.990509 
	C323.022308,375.546783 323.420807,371.919159 323.927887,368.783875 
	C324.506378,365.206909 325.509827,361.698669 326.339386,358.113861 
	C316.594482,357.606018 304.833557,364.684906 301.260162,373.371216 
	C298.982971,378.906647 297.322296,384.692841 295.162750,390.280609 
	C293.846100,393.687347 292.177399,396.966125 290.538055,400.237823 
	C288.850067,403.606537 286.653503,404.981842 283.042694,402.318054 
	C280.679047,400.574371 277.906433,399.385101 275.243164,397.906494 
	C270.019531,402.904205 268.936310,409.444641 268.472351,415.819183 
	C266.993500,436.137421 256.378540,450.667389 240.133118,461.640320 
	C236.351181,464.194794 234.930893,466.837219 235.120056,471.419678 
	C235.538330,481.551147 235.696564,491.725830 234.258148,501.825928 
	C234.094589,502.974457 233.866562,504.119995 233.576813,505.243256 
	C232.586182,509.083923 230.548401,508.852325 228.358124,506.339752 
	C218.857742,495.441193 215.830307,478.091705 227.171982,465.886444 
	C228.710220,464.231079 229.823318,462.629059 229.706467,460.206421 
	C228.596252,437.189087 226.104507,414.448120 217.377472,392.807709 
	C216.007797,389.411316 213.925339,387.586853 210.537811,386.285339 
	C184.700729,376.358185 161.288757,362.009674 138.812302,346.092712 
	C129.673569,339.621033 123.216995,331.085999 122.097054,319.424622 
	C121.939911,317.788391 121.866966,316.064270 122.210617,314.479614 
	C122.660019,312.407257 124.104446,311.106323 126.257797,312.404663 
	C140.894791,321.229736 157.711655,325.254486 172.604080,333.476624 
	C191.859070,344.107330 206.188492,359.610229 216.046814,379.110962 
	C218.678513,384.316711 222.494919,386.147949 228.289688,387.116302 
	C220.392166,359.763062 224.361801,332.326050 224.749786,304.874390 
	C224.154099,305.174469 223.791443,305.238739 223.638245,305.452881 
	C222.305084,307.316315 223.524109,311.314056 220.015656,311.118561 
	C216.903320,310.945190 216.460159,307.441437 215.606293,305.052551 
	C211.792633,294.382782 212.538376,283.520325 214.129440,272.515442 
	C216.718842,254.605331 223.055099,237.738052 228.015701,220.490524 
	C230.618744,211.440002 229.675552,202.016830 231.560135,192.878265 
	C233.298843,184.447083 237.422073,178.871201 245.770386,175.934845 
	C267.700623,168.221390 290.295624,163.803391 313.263611,160.622025 
	C334.159058,157.727707 355.205658,155.629639 375.783600,150.725021 
	C385.730591,148.354202 395.232391,144.812119 403.480530,138.542206 
	C414.581238,130.103912 420.225098,118.958748 419.825500,104.928101 
	C419.513184,93.962456 413.711792,86.097015 403.466919,82.111588 
	C395.535095,79.025970 387.186310,78.852547 378.914520,78.357124 
	C370.672882,77.863503 362.752838,76.233444 355.172699,73.057816 
	C350.795135,71.223862 347.234711,68.231827 344.365570,64.414047 
	C343.442047,63.185200 342.852478,61.065540 340.610626,62.058384 
	C338.584381,62.955753 339.290009,64.868011 339.318970,66.469429 
	C339.451263,73.787758 339.626709,81.052208 337.713654,88.279953 
	C332.066284,109.616173 318.636902,125.304482 301.806763,138.597839 
	C290.918518,147.197983 278.962189,154.166824 267.000702,161.108948 
	C262.244507,163.869278 260.472046,162.979980 259.939362,157.373138 
	C259.472046,152.454544 261.023712,147.830154 263.246643,143.474884 
	C268.977051,132.247772 277.571777,123.042480 284.969330,113.001038 
	C292.674561,102.541878 300.824585,92.411308 308.715881,82.087952 
	C314.712921,74.242607 321.081390,66.775703 329.438446,61.313923 
	C331.400940,60.031326 331.596741,58.824593 330.506317,56.789295 
	C326.960022,50.170242 320.508423,47.413677 313.668945,50.450172 
	C300.306641,56.382595 289.071320,53.605602 279.415985,42.975731 
	C275.720978,38.907799 271.909424,34.945770 268.213226,30.878914 
	C266.384949,28.867298 264.765137,28.353779 262.273193,30.166725 
	C258.225983,33.111122 253.678879,32.593376 249.443100,30.545671 
	C240.998947,26.463501 234.054306,28.001865 228.320633,35.434589 
	C220.324478,45.800243 209.516891,45.334736 198.310638,43.003838 
	C196.332062,42.592293 194.391602,42.185627 192.384476,42.461296 
	C185.556030,43.399166 184.231842,46.756931 187.959122,52.471989 
	C196.177628,65.073441 201.903900,78.994843 208.579163,92.406693 
	C218.155258,111.646896 227.442429,131.030899 236.849319,150.355301 
	C237.505569,151.703400 238.160873,153.053345 238.763199,154.425888 
	C239.316986,155.687790 239.649689,157.031616 238.584213,158.167877 
	C237.188797,159.655960 235.792801,158.622314 234.530090,157.897461 
	C225.052689,152.456985 216.712158,145.541611 209.367447,137.522415 
	C189.571548,115.908447 179.488831,90.210495 177.886917,61.072044 
	C177.768570,58.919250 177.793686,56.726189 178.062408,54.590904 
	C178.723145,49.340775 176.924118,46.952408 171.699036,46.313160 
	C166.855011,45.720531 162.829926,47.561111 159.350098,50.620174 
	C156.730392,52.923130 154.235596,55.423820 152.003860,58.102036 
	C145.321106,66.121712 137.427078,71.705559 126.067795,71.433853 
	C125.667175,79.329422 126.752609,86.770500 129.369507,93.996666 
	C130.252533,96.435028 132.805466,96.062531 134.544449,96.254547 
	C161.126389,99.189468 180.195297,114.258041 196.113342,134.299866 
	C207.143082,148.186981 215.821671,163.585236 224.031509,179.249023 
	C224.869049,180.847000 226.073288,182.539337 224.433014,184.276443 
	C222.897003,185.903183 221.320068,184.643539 219.862503,184.004608 
	C200.122284,175.351151 181.124710,165.408813 164.228271,151.833374 
	C149.323166,139.857864 137.379684,125.517365 129.302292,108.095184 
	C125.720932,100.370499 125.755257,100.530655 117.470436,101.161095 
	C105.586220,102.065445 96.961014,108.272697 90.004234,117.389114 
	C89.424141,118.149300 89.051300,119.067642 88.503708,120.053795 
	C91.005295,122.284355 94.011795,122.817947 96.768234,123.764557 
	C123.043686,132.788055 147.838486,144.849869 171.221436,159.834869 
	C171.782455,160.194382 172.387238,160.498962 172.901245,160.915909 
	C174.212296,161.979431 175.767960,163.176941 174.567230,165.034637 
	C173.338516,166.935638 171.676270,165.992722 170.203278,165.078995 
	C165.673187,162.268845 161.190567,159.378769 156.606827,156.659073 
	C136.332199,144.629303 114.978523,134.959122 92.598381,127.552826 
	C91.334229,127.134476 90.059814,126.743187 88.811378,126.281921 
	C82.406311,123.915359 81.495697,120.916153 85.318901,115.346512 
	C93.505386,103.420456 104.907242,97.170914 119.203842,95.924057 
	C120.665352,95.796593 122.113075,95.511208 123.865433,95.255600 
	C122.987457,88.958694 122.129700,82.931099 121.316353,76.897530 
	C121.072182,75.086227 120.821678,73.259926 120.797966,71.437576 
	C120.711288,64.775436 121.277527,64.393555 127.807129,66.230698 
	C131.707794,67.328171 134.996262,65.560196 138.192291,63.769604 
	C143.083069,61.029522 146.645554,56.780651 150.238495,52.619568 
	C157.879730,43.770065 166.524384,38.205536 178.647324,43.622883 
	C180.248535,44.338413 181.031403,43.433891 182.030685,42.437191 
	C186.420258,38.058994 191.729141,37.035946 197.682541,38.204830 
	C200.936325,38.843670 204.240570,39.246441 207.534515,39.655270 
	C213.185852,40.356689 218.077316,38.799435 222.031754,34.583984 
	C222.943420,33.612152 223.996704,32.764839 224.847687,31.745712 
	C231.996002,23.184999 240.608307,21.136902 250.716339,25.945894 
	C254.724014,27.852579 258.402313,27.803921 261.729828,24.613384 
	C264.158997,22.284174 266.563599,22.705643 268.782196,24.792152 
	C271.688782,27.525747 274.501221,30.363340 277.276886,33.230980 
	C279.361572,35.384792 281.337921,37.644459 283.339355,39.877762 
	C291.244507,48.698757 300.275665,51.250469 311.589142,46.270496 
	C321.880066,41.740635 328.528564,44.943501 336.710571,56.998108 
	C338.346619,57.719231 339.921082,56.754528 341.484924,56.461018 
	C343.935089,56.001156 345.658203,56.456627 346.874939,58.788792 
	C351.823395,68.274094 360.847687,71.198792 370.407898,72.658173 
	C377.950409,73.809555 385.625824,74.097992 393.244751,74.739967 
	C409.522186,76.111504 421.586884,85.696587 424.129669,99.302551 
	C427.362671,116.601463 418.770081,135.047775 402.890198,144.995636 
	C390.322327,152.868698 376.213898,155.974274 361.860168,158.308044 
	C335.456238,162.601028 308.820343,165.377975 282.516174,170.304031 
	C270.713898,172.514282 259.441864,176.700439 247.980316,180.185104 
	C239.443756,182.780441 235.692627,189.260101 235.548950,197.048767 
	C235.217026,215.041306 229.714935,231.723587 224.455887,248.560547 
	C220.777115,260.338196 218.497787,272.432678 217.412613,284.717224 
	C216.930939,290.169800 217.676727,295.562378 219.814896,301.265015 
	C223.372879,297.202179 225.502640,293.432983 225.819443,288.186615 
	C228.348526,246.303787 259.710419,221.996155 291.552887,218.641266 
	C293.441284,218.442291 295.897949,217.481583 296.959900,219.788330 
	C298.066589,222.192261 295.868896,223.752686 294.449493,225.316788 
	C282.673492,238.292999 269.364258,249.702148 256.899567,261.976135 
	C246.984360,271.739655 239.089554,283.084167 231.084808,294.355072 
	C230.102585,295.738068 229.430115,297.191681 229.441483,298.966400 
	C229.562088,317.789734 227.583817,336.560852 228.147446,355.403442 
	C228.473251,366.295685 229.969940,376.931274 233.464142,387.266571 
	C234.037476,388.962463 235.267410,390.803589 233.822525,392.436981 
	C232.317978,394.137878 230.434860,392.825745 228.696808,392.464905 
	C226.769241,392.064697 224.998230,390.904358 222.181152,391.339355 
	C225.703705,402.255157 229.062424,413.113831 230.974533,424.329254 
	C232.902847,435.639679 233.138733,447.127563 234.475006,458.437836 
	C236.204788,459.410461 237.112579,457.994141 238.060837,457.322052 
	C252.733582,446.923401 262.556305,433.674805 263.868195,414.970795 
	C264.379028,407.688354 265.998444,400.418732 271.328857,394.725403 
	C273.868256,392.013123 276.000702,390.435059 279.448059,394.246552 
	C283.980316,399.257660 286.423248,398.496460 289.140533,392.439392 
	C292.347778,385.290131 293.825043,377.532257 297.239258,370.427826 
	C300.065521,364.546753 304.201355,360.186981 310.088013,357.761383 
	C316.232086,355.229706 322.566711,353.124542 328.910950,351.128235 
	C332.536163,349.987518 333.877106,351.590179 332.569855,355.360352 
	C330.774353,360.538666 329.086914,365.720337 328.384460,372.413300 
	C333.824127,364.221100 339.745636,357.931671 346.960632,352.962433 
	C352.367798,349.238342 354.080231,349.834961 356.113708,356.051971 
	C358.137634,356.506836 359.528107,355.071625 361.032837,354.187561 
	C375.891724,345.457672 389.624512,335.224030 402.038605,323.248688 
	C403.358002,321.975952 404.650055,320.674408 405.985748,319.419159 
	C407.101685,318.370453 408.325745,317.386627 409.980164,317.992279 
	C411.568726,318.573822 411.397522,320.135895 411.470856,321.405731 
	C412.278534,335.390778 410.263824,348.929413 404.695770,361.832825 
	C391.563568,392.265442 368.656586,414.209351 342.488647,433.320679 
	C324.322266,446.588165 305.180084,458.456177 287.220032,472.022156 
	C270.496216,484.654358 255.514542,498.943787 243.293137,516.095459 
	C236.724823,525.313477 229.584793,534.126831 222.610703,543.050903 
	C221.130371,544.945129 220.549240,546.708862 221.517548,549.004028 
	C232.463211,574.948425 226.690704,598.718323 212.322662,621.526001 
	C202.657120,636.868958 192.200607,651.797607 185.824570,668.991577 
	C176.339096,694.570679 172.773361,720.783691 177.014694,747.916748 
	C177.370621,750.193604 179.320374,754.165039 175.839539,754.805786 
	C172.149841,755.484985 172.866501,751.285645 172.522034,748.892334 
	C166.816147,709.247864 174.739609,672.463257 195.853973,638.481201 
	C203.320572,626.464294 211.524521,614.881104 217.181808,601.808716 
	C224.196442,585.599854 224.637589,569.375183 217.439133,552.271057 
	C212.404099,559.157471 210.570145,566.514648 209.475006,573.986328 
	C208.855225,578.214783 208.761307,582.663391 209.797394,586.917297 
	C210.671448,590.506104 209.032928,591.895813 205.821167,592.231323 
	C200.784821,592.757446 196.321854,591.012634 191.692001,588.492920 
M206.551971,565.314026 
	C207.865982,559.942932 209.828079,554.799377 212.693192,550.089355 
	C214.529510,547.070496 214.686844,544.532898 212.923141,541.330139 
	C207.764786,531.963135 201.843140,523.122559 195.541290,514.508911 
	C192.587036,510.470978 190.032303,505.863495 183.692139,508.962494 
	C182.966675,509.317108 181.758408,508.745300 180.789810,508.531372 
	C173.817993,506.991852 170.885010,501.664337 168.949631,495.582977 
	C167.640793,491.470367 167.000183,487.131531 165.529633,483.086945 
	C162.922806,475.917084 159.251099,473.851868 151.804138,474.739655 
	C147.609314,475.239716 144.174255,473.926575 142.007263,470.252045 
	C140.493942,467.685913 139.180115,464.962463 138.109222,462.181427 
	C129.049576,438.653625 116.404877,417.224243 100.505142,397.696747 
	C99.452080,396.403412 98.670372,394.554626 96.249931,394.328308 
	C96.249931,395.590729 96.212296,396.575409 96.255524,397.556549 
	C97.021606,414.941895 100.673302,431.810150 105.590073,448.423645 
	C120.669235,499.375336 152.764282,539.709229 187.130554,578.580017 
	C190.670593,582.584045 195.175842,585.496460 200.457718,587.100586 
	C203.632492,588.064819 204.784363,587.160950 204.716156,583.927673 
	C204.589828,577.939453 204.396835,571.927490 206.551971,565.314026 
M151.366409,105.164803 
	C145.366394,102.732841 139.199677,101.176498 131.857773,101.096069 
	C139.289505,120.348366 151.590714,134.911285 166.687332,147.324768 
	C181.566849,159.559723 198.133438,168.951126 215.984039,176.255493 
	C211.990906,166.787903 206.848297,158.264694 201.347885,149.971497 
	C188.729904,130.946960 173.852081,114.362328 151.366409,105.164803 
M265.474335,150.877655 
	C265.465973,152.572525 264.388000,154.251923 265.246246,156.419601 
	C281.384125,147.308456 296.859863,137.887680 309.892639,125.031868 
	C320.597229,114.472595 329.027588,102.379326 333.008148,87.657639 
	C334.955139,80.456894 335.660522,73.122597 333.822052,64.999939 
	C327.228027,67.940323 322.819031,72.437927 318.957184,77.368805 
	C303.966553,96.509087 289.124756,115.766228 274.279144,135.019638 
	C270.709534,139.649109 267.624878,144.593292 265.474335,150.877655 
M195.744339,374.690155 
	C200.791153,376.906158 205.837967,379.122162 210.884781,381.338196 
	C205.217941,368.671906 197.005081,358.612915 187.264343,349.605347 
	C170.224838,333.848389 147.704712,329.176636 127.763962,318.986084 
	C126.894478,321.549683 127.535957,323.394897 128.240128,325.284760 
	C130.957443,332.577515 135.849487,338.220825 142.100555,342.545410 
	C159.067566,354.283417 176.419479,365.414642 195.744339,374.690155 
M183.173523,56.107018 
	C183.049423,57.762711 182.787369,59.421310 182.822205,61.073654 
	C183.243118,81.036034 189.232529,99.365395 199.534470,116.302231 
	C207.369217,129.182938 217.230957,140.266373 230.665573,149.468704 
	C230.018311,147.732605 229.804123,146.967194 229.460815,146.264908 
	C216.004883,118.738884 202.580673,91.197136 189.006470,63.729511 
	C187.586136,60.855450 186.549271,57.532242 183.173523,56.107018 
M240.769455,255.264465 
	C234.484482,265.688019 230.579498,278.659393 232.167038,284.721191 
	C247.111420,260.937164 269.814423,244.755081 288.029297,224.275482 
	C267.982330,227.652557 252.405762,237.808517 240.769455,255.264465 
M224.602188,482.119415 
	C223.832123,488.161194 225.767349,493.418884 229.557220,499.463074 
	C231.381256,489.245178 230.698166,480.235046 230.317566,470.234589 
	C226.520233,473.893555 225.736282,477.641876 224.602188,482.119415 
z"/>
</svg>